<svg width="86" height="87" viewBox="0 0 86 87" fill="none" xmlns="http://www.w3.org/2000/svg">
<g id="iCON 7 2" clip-path="url(#clip0_501_1964)">
<g id="Layer 2">
<g id="Layer 1">
<path id="Vector" d="M66.9518 36.7106C65.7484 32.5613 63.559 28.7648 60.5706 25.6449C57.5821 22.5251 53.8832 20.1745 49.7895 18.7939C45.7451 17.6167 41.4941 17.3274 37.3275 17.9459C33.1609 18.5643 29.1772 20.076 25.6491 22.3772C25.3588 22.6681 24.9948 22.8745 24.5961 22.9742C24.1974 23.0739 23.779 23.0631 23.386 22.943C22.5936 22.6863 21.8796 22.232 21.3114 21.6228C20.8978 20.8766 20.7641 20.0072 20.9342 19.1711C21.0423 18.7698 21.2321 18.3951 21.4917 18.0706C21.7513 17.746 22.0752 17.4786 22.443 17.2851C32.4386 11.4386 42.2456 9.92986 51.6755 12.9474C56.318 14.4916 60.5564 17.0543 64.0807 20.448C67.6049 23.8417 70.3257 27.9805 72.0439 32.5614H84.6798C82.0961 22.3696 75.8677 13.4777 67.1723 7.56675C58.4769 1.65583 47.9172 -0.86438 37.4896 0.482612C27.062 1.8296 17.4893 6.95044 10.5814 14.8769C3.6735 22.8034 -0.0908772 32.9862 2.16487e-05 43.5C2.16487e-05 45.1974 0.188618 46.7062 0.188618 48.4035H16.2193C16.8316 48.3688 17.4385 48.534 17.9487 48.8741C18.459 49.2143 18.8448 49.711 19.0483 50.2895C20.2801 54.4245 22.4793 58.2065 25.4639 61.3222C28.4484 64.4379 32.1324 66.7978 36.2105 68.2062C40.2549 69.3834 44.506 69.6727 48.6726 69.0542C52.8391 68.4357 56.8229 66.9241 60.3509 64.6228C60.6412 64.3319 61.0053 64.1256 61.404 64.0259C61.8027 63.9262 62.221 63.937 62.6141 64.0571C63.4065 64.3138 64.1205 64.7681 64.6886 65.3772C65.1022 66.1235 65.236 66.9929 65.0658 67.829C64.9578 68.2303 64.768 68.605 64.5083 68.9295C64.2487 69.254 63.9249 69.5214 63.557 69.7149C57.8721 73.5402 51.1723 75.5764 44.3202 75.5614C40.9336 75.5359 37.5679 75.0279 34.3246 74.0527C29.6626 72.5453 25.4053 69.9956 21.8761 66.597C18.3468 63.1985 15.6383 59.0404 13.9562 54.4386H1.50879C4.23525 64.4628 10.4985 73.1611 19.1407 78.9256C27.783 84.6901 38.2199 87.1311 48.5223 85.7973C58.8247 84.4635 68.2959 79.4451 75.1853 71.6698C82.0746 63.8945 85.9162 53.8881 86 43.5C86.0351 41.926 85.9721 40.3513 85.8114 38.7851H69.9693C69.3263 38.7426 68.7066 38.5275 68.1755 38.1624C67.6445 37.7973 67.2217 37.2957 66.9518 36.7106Z" fill="#100A42"/>
<path id="Vector_2" d="M43.1819 62.3115C46.8947 62.2758 50.514 61.1422 53.5838 59.0535C56.6536 56.9647 59.0367 54.0143 60.4328 50.5738C61.829 47.1333 62.1759 43.3565 61.4297 39.7192C60.6835 36.082 58.8777 32.7469 56.2396 30.1339C53.6016 27.521 50.2493 25.7472 46.6051 25.0359C42.9608 24.3245 39.1876 24.7075 35.7606 26.1365C32.3336 27.5655 29.4061 29.9767 27.3468 33.0664C25.2876 36.1561 24.1886 39.786 24.1885 43.499C24.1884 45.9848 24.6809 48.446 25.6376 50.7403C26.5943 53.0346 27.9962 55.1165 29.7623 56.8658C31.5284 58.6151 33.6237 59.997 35.9271 60.9317C38.2304 61.8665 40.6962 62.3354 43.1819 62.3115Z" fill="white"/>
</g>
</g>
</g>
<defs>
<clipPath id="clip0_501_1964">
<rect width="86" height="86" fill="white" transform="translate(0 0.5)"/>
</clipPath>
</defs>
</svg>
